<svg xmlns="http://www.w3.org/2000/svg" viewBox="0 0 102 102"><path d="M91,86.19,85.31,22.73a3,3,0,0,0-3-2.73H71.74C70.24,8.7,61.93,1,51.06,1S31.76,8.63,30.23,20H19.7a3,3,0,0,0-3,2.73L11,86.19a2.44,2.44,0,0,0,0,.27A14.46,14.46,0,0,0,25.38,101H76.62A14.46,14.46,0,0,0,91,86.46,2.44,2.44,0,0,0,91,86.19ZM51,7c7.53,0,13.28,5.05,14.63,13H36.3C37.68,12,43.48,7,51,7ZM76.62,95H25.38A8.46,8.46,0,0,1,17,86.59L22.44,26H30l0,7.93a3,3,0,0,0,6,0l0-8H66l0,8a3,3,0,0,0,6,0L72,26h7.6L85,86.59A8.46,8.46,0,0,1,76.62,95Z"/></svg>